<?xml version="1.0" encoding="UTF-8"?>
<svg width="512" height="512" version="1.1" viewBox="0 -683 28294 28292" xmlns="http://www.w3.org/2000/svg">
   <g transform="matrix(23.984 0 0 -23.984 2166.9 21426)" fill="white">
      <path id="a"
         d="m785 664q0 6 10 19h187q12-8 12-18 0-15-19-17-22-5-36-29-8-26-116-327t-113-307q-4-4-11-4t-11 4q-6 9-49 122t-84 221-42 109q0 1-13-28t-38-84-49-113q-98-226-103-229-2-2-8-2t-14 4l-231 634q-12 24-33 29-19 2-19 17 0 12 12 18h183q56 0 70-2t15-15q0-7-5-12t-12-6q-15 0-29-14-9-4-9-15 0-21 34-138l98-289q1 1 66 149t65 151q0 4-20 54t-27 62q-20 40-47 40-7 0-12 5t-5 14q0 11 11 16h286q11-13 11-18 0-3-5-10t-12-7q-20 0-40-16l-11-7v-15q4-34 35-131t62-179 32-82q3 0 28 76 68 198 68 287 0 67-45 67-6 0-11 4t-6 12zm-591-41q0 7 5 25h-117l8-16q9-16 109-300l103-282q1 0 20 44t20 47q0 1-37 104t-74 222-37 156zm391-3q0 14 8 28h-63q-64 0-64-3 13-13 129-322l104-269q2 2 19 49t17 51l-33 91q-117 317-117 375zm299-48 6 15q6 15 13 33t12 25q0 3-22 3h-25l7-14q8-36 8-58 0-4 1-4z" />
   </g>
</svg>